<mxfile host="app.diagrams.net" modified="2021-01-08T11:39:55.429Z" agent="5.0 (Windows NT 10.0; Win64; x64) AppleWebKit/537.36 (KHTML, like Gecko) Chrome/87.0.4280.88 Safari/537.36" etag="-DMoPObKtnb3Yza80XjA" version="14.1.8" type="github">
  <diagram id="Vg40JJJ7-3CdHcnk_Bwl" name="第 1 页">
    <mxGraphModel dx="1422" dy="826" grid="1" gridSize="10" guides="1" tooltips="1" connect="1" arrows="1" fold="1" page="1" pageScale="1" pageWidth="827" pageHeight="1169" math="0" shadow="0">
      <root>
        <mxCell id="0" />
        <mxCell id="1" parent="0" />
        <mxCell id="mI3qtOptWadRCO2syrWG-3" style="edgeStyle=orthogonalEdgeStyle;rounded=0;orthogonalLoop=1;jettySize=auto;html=1;exitX=0.5;exitY=0;exitDx=0;exitDy=0;entryX=0.5;entryY=1;entryDx=0;entryDy=0;" edge="1" parent="1" source="mI3qtOptWadRCO2syrWG-1" target="mI3qtOptWadRCO2syrWG-2">
          <mxGeometry relative="1" as="geometry" />
        </mxCell>
        <mxCell id="mI3qtOptWadRCO2syrWG-17" style="edgeStyle=orthogonalEdgeStyle;rounded=0;orthogonalLoop=1;jettySize=auto;html=1;exitX=0;exitY=0.5;exitDx=0;exitDy=0;entryX=0;entryY=0.5;entryDx=0;entryDy=0;" edge="1" parent="1" source="mI3qtOptWadRCO2syrWG-1" target="mI3qtOptWadRCO2syrWG-8">
          <mxGeometry relative="1" as="geometry">
            <Array as="points">
              <mxPoint x="230" y="700" />
              <mxPoint x="230" y="270" />
            </Array>
          </mxGeometry>
        </mxCell>
        <mxCell id="mI3qtOptWadRCO2syrWG-1" value="输入向量&lt;br&gt;（bs,len,128）" style="rounded=0;whiteSpace=wrap;html=1;" vertex="1" parent="1">
          <mxGeometry x="340" y="670" width="120" height="60" as="geometry" />
        </mxCell>
        <mxCell id="mI3qtOptWadRCO2syrWG-5" value="&lt;font style=&quot;font-size: 18px&quot;&gt;(bs,len,512)&lt;/font&gt;" style="edgeStyle=orthogonalEdgeStyle;rounded=0;orthogonalLoop=1;jettySize=auto;html=1;exitX=0.5;exitY=0;exitDx=0;exitDy=0;entryX=0.5;entryY=1;entryDx=0;entryDy=0;" edge="1" parent="1" source="mI3qtOptWadRCO2syrWG-2" target="mI3qtOptWadRCO2syrWG-4">
          <mxGeometry relative="1" as="geometry" />
        </mxCell>
        <mxCell id="mI3qtOptWadRCO2syrWG-2" value="&lt;font style=&quot;font-size: 24px&quot;&gt;Linear&lt;/font&gt;" style="rounded=1;whiteSpace=wrap;html=1;" vertex="1" parent="1">
          <mxGeometry x="340" y="570" width="120" height="60" as="geometry" />
        </mxCell>
        <mxCell id="mI3qtOptWadRCO2syrWG-7" value="&lt;font style=&quot;font-size: 18px&quot;&gt;(bs,len,512)&lt;/font&gt;" style="edgeStyle=orthogonalEdgeStyle;rounded=0;orthogonalLoop=1;jettySize=auto;html=1;exitX=0.5;exitY=0;exitDx=0;exitDy=0;" edge="1" parent="1" source="mI3qtOptWadRCO2syrWG-4" target="mI3qtOptWadRCO2syrWG-6">
          <mxGeometry relative="1" as="geometry" />
        </mxCell>
        <mxCell id="mI3qtOptWadRCO2syrWG-4" value="&lt;font style=&quot;font-size: 24px&quot;&gt;Relu&lt;/font&gt;" style="rounded=1;whiteSpace=wrap;html=1;" vertex="1" parent="1">
          <mxGeometry x="340" y="460" width="120" height="60" as="geometry" />
        </mxCell>
        <mxCell id="mI3qtOptWadRCO2syrWG-9" value="&lt;font style=&quot;font-size: 18px&quot;&gt;(bs,len,128)&lt;/font&gt;" style="edgeStyle=orthogonalEdgeStyle;rounded=0;orthogonalLoop=1;jettySize=auto;html=1;exitX=0.5;exitY=0;exitDx=0;exitDy=0;entryX=0.5;entryY=1;entryDx=0;entryDy=0;" edge="1" parent="1" source="mI3qtOptWadRCO2syrWG-6" target="mI3qtOptWadRCO2syrWG-8">
          <mxGeometry relative="1" as="geometry" />
        </mxCell>
        <mxCell id="mI3qtOptWadRCO2syrWG-6" value="&lt;font style=&quot;font-size: 24px&quot;&gt;Linear&lt;/font&gt;" style="rounded=1;whiteSpace=wrap;html=1;" vertex="1" parent="1">
          <mxGeometry x="340" y="350" width="120" height="60" as="geometry" />
        </mxCell>
        <mxCell id="mI3qtOptWadRCO2syrWG-11" value="&lt;font style=&quot;font-size: 18px&quot;&gt;(bs,len,128)&lt;/font&gt;" style="edgeStyle=orthogonalEdgeStyle;rounded=0;orthogonalLoop=1;jettySize=auto;html=1;exitX=0.5;exitY=0;exitDx=0;exitDy=0;" edge="1" parent="1" source="mI3qtOptWadRCO2syrWG-8" target="mI3qtOptWadRCO2syrWG-10">
          <mxGeometry relative="1" as="geometry" />
        </mxCell>
        <mxCell id="mI3qtOptWadRCO2syrWG-8" value="&lt;font style=&quot;font-size: 24px&quot;&gt;add&lt;/font&gt;" style="rounded=1;whiteSpace=wrap;html=1;" vertex="1" parent="1">
          <mxGeometry x="340" y="240" width="120" height="60" as="geometry" />
        </mxCell>
        <mxCell id="mI3qtOptWadRCO2syrWG-14" style="edgeStyle=orthogonalEdgeStyle;rounded=0;orthogonalLoop=1;jettySize=auto;html=1;exitX=0.5;exitY=0;exitDx=0;exitDy=0;entryX=0.5;entryY=1;entryDx=0;entryDy=0;" edge="1" parent="1" source="mI3qtOptWadRCO2syrWG-10" target="mI3qtOptWadRCO2syrWG-12">
          <mxGeometry relative="1" as="geometry" />
        </mxCell>
        <mxCell id="mI3qtOptWadRCO2syrWG-10" value="&lt;font style=&quot;font-size: 24px&quot;&gt;no_norm&lt;/font&gt;" style="rounded=1;whiteSpace=wrap;html=1;" vertex="1" parent="1">
          <mxGeometry x="340" y="130" width="120" height="60" as="geometry" />
        </mxCell>
        <mxCell id="mI3qtOptWadRCO2syrWG-12" value="输出向量&lt;br&gt;（bs,len,128）" style="rounded=0;whiteSpace=wrap;html=1;" vertex="1" parent="1">
          <mxGeometry x="340" y="20" width="120" height="60" as="geometry" />
        </mxCell>
      </root>
    </mxGraphModel>
  </diagram>
</mxfile>
